<svg xmlns="http://www.w3.org/2000/svg" width="160" height="40" viewBox="0 0 160 40">
  <defs>
    <linearGradient id="logoGradient" x1="0%" y1="0%" x2="100%" y2="0%">
      <stop offset="0%" stop-color="#6366F1" />
      <stop offset="100%" stop-color="#EC4899" />
    </linearGradient>
  </defs>
  <g fill="none" fill-rule="evenodd">
    <path fill="url(#logoGradient)" d="M30,5 C39.3888407,5 47,12.6111593 47,22 C47,31.3888407 39.3888407,39 30,39 C20.6111593,39 13,31.3888407 13,22 C13,12.6111593 20.6111593,5 30,5 Z M30,9 C22.8202983,9 17,14.8202983 17,22 C17,29.1797017 22.8202983,35 30,35 C37.1797017,35 43,29.1797017 43,22 C43,14.8202983 37.1797017,9 30,9 Z" />
    <path fill="#10B981" d="M30,14 C34.418278,14 38,17.581722 38,22 C38,26.418278 34.418278,30 30,30 C25.581722,30 22,26.418278 22,22 C22,17.581722 25.581722,14 30,14 Z" />
    <path fill="#FFFFFF" d="M30,19 C31.6568542,19 33,20.3431458 33,22 C33,23.6568542 31.6568542,25 30,25 C28.3431458,25 27,23.6568542 27,22 C27,20.3431458 28.3431458,19 30,19 Z" />
    <!-- Waveform lines -->
    <g stroke="#6366F1" stroke-linecap="round" stroke-width="2">
      <path d="M53,14 L53,30" />
      <path d="M57,11 L57,33" />
      <path d="M61,16 L61,28" />
      <path d="M65,13 L65,31" />
      <path d="M69,18 L69,26" />
      <path d="M73,10 L73,34" />
      <path d="M77,15 L77,29" />
    </g>
  </g>
</svg>
